<svg xmlns="http://www.w3.org/2000/svg" viewBox="0 0 400 400" role="img" aria-label="16-Piece Bamboo Fiber Dinnerware Set">
  <defs>
    <linearGradient id="bg" x1="0" y1="0" x2="0" y2="1"><stop offset="0" stop-color="#ecfdf5"/><stop offset="1" stop-color="#d1fae5"/></linearGradient>
    <radialGradient id="plate" cx="0.4" cy="0.35" r="0.8"><stop offset="0" stop-color="#10b981"/><stop offset="1" stop-color="#047857"/></radialGradient>
    <radialGradient id="bowl" cx="0.42" cy="0.38" r="0.75"><stop offset="0" stop-color="#10b981"/><stop offset="1" stop-color="#064e3b"/></radialGradient>
    <linearGradient id="mug" x1="0" y1="0" x2="1" y2="1"><stop offset="0" stop-color="#10b981"/><stop offset="1" stop-color="#047857"/></linearGradient>
    <linearGradient id="metal" x1="0" y1="0" x2="1" y2="0"><stop offset="0" stop-color="#a7f3d0"/><stop offset="1" stop-color="#047857"/></linearGradient>
    <linearGradient id="sheen" x1="0" y1="0" x2="1" y2="1"><stop offset="0" stop-color="#ffffff" stop-opacity="0.5"/><stop offset="0.55" stop-color="#ffffff" stop-opacity="0"/></linearGradient>
  </defs>
  <rect width="400" height="400" rx="28" fill="url(#bg)"/>
  <circle cx="322" cy="80" r="48" fill="#10b981" opacity="0.10"/>
  <circle cx="76" cy="118" r="26" fill="#10b981" opacity="0.08"/>
  <ellipse cx="200" cy="326" rx="94" ry="16" fill="#064e3b" opacity="0.12"/>
  <g>
    <line x1="128" y1="150" x2="128" y2="262" stroke="url(#metal)" stroke-width="9" stroke-linecap="round"/>
    <g fill="#047857"><circle cx="124" cy="148" r="3"/><circle cx="132" cy="148" r="3"/><circle cx="128" cy="143" r="3"/></g>
    <path d="M266 150 L266 206 Q266 218 274 218 L274 262" fill="none" stroke="url(#metal)" stroke-width="9" stroke-linecap="round"/>
    <circle cx="200" cy="200" r="86" fill="url(#plate)"/>
    <circle cx="200" cy="200" r="86" fill="none" stroke="#a7f3d0" stroke-width="3" opacity="0.7"/>
    <circle cx="200" cy="200" r="64" fill="#064e3b" opacity="0.30"/>
    <path d="M158 158 A86 86 0 0 1 230 130" fill="none" stroke="url(#sheen)" stroke-width="20" stroke-linecap="round"/>
    <circle cx="200" cy="200" r="56" fill="url(#bowl)"/>
    <circle cx="200" cy="200" r="56" fill="none" stroke="#a7f3d0" stroke-width="2.5" opacity="0.6"/>
    <circle cx="200" cy="200" r="40" fill="#064e3b" opacity="0.45"/>
    <path d="M172 174 A56 56 0 0 1 222 158" fill="none" stroke="#ffffff" stroke-width="9" stroke-linecap="round" opacity="0.35"/>
    <circle cx="200" cy="200" r="22" fill="#a7f3d0" opacity="0.45"/>
  </g>
</svg>
