<svg xmlns="http://www.w3.org/2000/svg" viewBox="0 0 400 400" role="img" aria-label="Eau de Parfum 50ml">
  <defs>
    <linearGradient id="bg" x1="0" y1="0" x2="0" y2="1"><stop offset="0" stop-color="#fdf2f8"/><stop offset="1" stop-color="#fce7f3"/></linearGradient>
    <linearGradient id="body" x1="0" y1="0" x2="1" y2="1"><stop offset="0" stop-color="#ec4899"/><stop offset="1" stop-color="#be185d"/></linearGradient>
    <linearGradient id="liquid" x1="0" y1="0" x2="0" y2="1"><stop offset="0" stop-color="#ec4899" stop-opacity="0.55"/><stop offset="1" stop-color="#be185d"/></linearGradient>
    <linearGradient id="cap" x1="0" y1="0" x2="1" y2="1"><stop offset="0" stop-color="#be185d"/><stop offset="1" stop-color="#831843"/></linearGradient>
    <linearGradient id="sheen" x1="0" y1="0" x2="1" y2="0"><stop offset="0" stop-color="#ffffff" stop-opacity="0.5"/><stop offset="0.55" stop-color="#ffffff" stop-opacity="0"/></linearGradient>
  </defs>
  <rect width="400" height="400" rx="28" fill="url(#bg)"/>
  <circle cx="322" cy="80" r="48" fill="#ec4899" opacity="0.10"/>
  <circle cx="76" cy="118" r="26" fill="#ec4899" opacity="0.08"/>
  <ellipse cx="200" cy="326" rx="94" ry="16" fill="#831843" opacity="0.12"/>
  <g>
    <rect x="186" y="92" width="28" height="20" rx="3" fill="url(#cap)"/>
    <rect x="178" y="108" width="44" height="40" rx="6" fill="url(#cap)"/>
    <rect x="178" y="108" width="14" height="40" rx="6" fill="#ffffff" opacity="0.22"/>
    <rect x="190" y="146" width="20" height="14" rx="2" fill="#831843"/>
    <path d="M150 178 q0 -18 18 -18 h64 q18 0 18 18 v108 q0 18 -18 18 h-64 q-18 0 -18 -18 z" fill="url(#body)"/>
    <path d="M158 196 q0 -2 6 -2 h72 q6 0 6 2 v86 q0 12 -12 12 h-60 q-12 0 -12 -12 z" fill="url(#liquid)"/>
    <rect x="150" y="160" width="34" height="144" rx="16" fill="url(#sheen)"/>
    <polygon points="232,165 250,178 250,286 232,300" fill="#831843" opacity="0.30"/>
    <rect x="174" y="210" width="52" height="36" rx="6" fill="#fbcfe8" opacity="0.85"/>
    <rect x="174" y="210" width="52" height="14" rx="6" fill="#ffffff" opacity="0.35"/>
    <line x1="200" y1="252" x2="200" y2="276" stroke="#fbcfe8" stroke-width="3" stroke-linecap="round" opacity="0.7"/>
    <circle cx="200" cy="284" r="4" fill="#fbcfe8" opacity="0.8"/>
  </g>
</svg>
