<svg xmlns="http://www.w3.org/2000/svg" viewBox="0 0 400 400" role="img" aria-label="Glass Food Container Set (10pc)">
  <defs>
    <linearGradient id="bg" x1="0" y1="0" x2="0" y2="1">
      <stop offset="0" stop-color="#ecfdf5"/>
      <stop offset="1" stop-color="#d1fae5"/>
    </linearGradient>
    <linearGradient id="lid" x1="0" y1="0" x2="1" y2="1">
      <stop offset="0" stop-color="#10b981"/>
      <stop offset="1" stop-color="#047857"/>
    </linearGradient>
    <linearGradient id="glass" x1="0" y1="0" x2="1" y2="1">
      <stop offset="0" stop-color="#a7f3d0" stop-opacity="0.55"/>
      <stop offset="1" stop-color="#10b981" stop-opacity="0.28"/>
    </linearGradient>
    <linearGradient id="sheen" x1="0" y1="0" x2="1" y2="0">
      <stop offset="0" stop-color="#ffffff" stop-opacity="0.55"/>
      <stop offset="0.55" stop-color="#ffffff" stop-opacity="0"/>
    </linearGradient>
  </defs>
  <rect width="400" height="400" rx="28" fill="url(#bg)"/>
  <circle cx="322" cy="80" r="48" fill="#10b981" opacity="0.10"/>
  <circle cx="76" cy="118" r="26" fill="#10b981" opacity="0.08"/>
  <ellipse cx="200" cy="326" rx="94" ry="16" fill="#064e3b" opacity="0.12"/>
  <g>
    <rect x="120" y="252" width="160" height="52" rx="12" fill="url(#glass)" stroke="#047857" stroke-opacity="0.35" stroke-width="1.5"/>
    <rect x="116" y="238" width="168" height="20" rx="8" fill="url(#lid)"/>
    <rect x="116" y="238" width="60" height="20" rx="8" fill="url(#sheen)"/>
    <rect x="126" y="190" width="148" height="50" rx="12" fill="url(#glass)" stroke="#047857" stroke-opacity="0.35" stroke-width="1.5"/>
    <rect x="122" y="176" width="156" height="20" rx="8" fill="url(#lid)"/>
    <rect x="122" y="176" width="56" height="20" rx="8" fill="url(#sheen)"/>
    <rect x="132" y="128" width="136" height="50" rx="12" fill="url(#glass)" stroke="#047857" stroke-opacity="0.35" stroke-width="1.5"/>
    <rect x="128" y="114" width="144" height="20" rx="8" fill="url(#lid)"/>
    <rect x="128" y="114" width="50" height="20" rx="8" fill="url(#sheen)"/>
    <rect x="148" y="92" width="104" height="46" rx="11" fill="url(#glass)" stroke="#047857" stroke-opacity="0.4" stroke-width="1.5"/>
    <rect x="144" y="80" width="112" height="18" rx="7" fill="url(#lid)"/>
    <rect x="144" y="80" width="42" height="18" rx="7" fill="url(#sheen)"/>
    <line x1="155" y1="100" x2="155" y2="290" stroke="#ffffff" stroke-opacity="0.45" stroke-width="3" stroke-linecap="round"/>
    <line x1="248" y1="262" x2="248" y2="296" stroke="#a7f3d0" stroke-opacity="0.5" stroke-width="2" stroke-linecap="round"/>
  </g>
</svg>
