<svg xmlns="http://www.w3.org/2000/svg" viewBox="0 0 400 400" role="img" aria-label="Heavyweight Full-Zip Hoodie">
  <defs>
    <linearGradient id="bg" x1="0" y1="0" x2="0" y2="1"><stop offset="0" stop-color="#fff7ed"/><stop offset="1" stop-color="#ffedd5"/></linearGradient>
    <linearGradient id="body" x1="0" y1="0" x2="1" y2="1"><stop offset="0" stop-color="#f59e0b"/><stop offset="1" stop-color="#b45309"/></linearGradient>
    <linearGradient id="hood" x1="0" y1="0" x2="1" y2="1"><stop offset="0" stop-color="#f59e0b"/><stop offset="1" stop-color="#b45309"/></linearGradient>
    <linearGradient id="sheen" x1="0" y1="0" x2="1" y2="0"><stop offset="0" stop-color="#ffffff" stop-opacity="0.5"/><stop offset="0.55" stop-color="#ffffff" stop-opacity="0"/></linearGradient>
  </defs>
  <rect width="400" height="400" rx="28" fill="url(#bg)"/>
  <circle cx="322" cy="80" r="48" fill="#f59e0b" opacity="0.10"/>
  <circle cx="76" cy="118" r="26" fill="#f59e0b" opacity="0.08"/>
  <ellipse cx="200" cy="326" rx="94" ry="16" fill="#7c2d12" opacity="0.12"/>
  <g>
    <path d="M128 168 L160 122 Q200 104 240 122 L272 168 L246 188 L246 296 Q200 306 154 296 L154 188 Z" fill="url(#body)"/>
    <path d="M160 122 Q200 104 240 122 L228 150 Q200 136 172 150 Z" fill="#7c2d12" opacity="0.45"/>
    <path d="M172 150 Q200 136 228 150 L222 168 Q200 158 178 168 Z" fill="#fde68a" opacity="0.55"/>
    <path d="M128 168 L160 122 L172 150 L154 188 Z" fill="url(#sheen)"/>
    <rect x="196" y="150" width="8" height="146" fill="#7c2d12" opacity="0.7"/>
    <rect x="197.5" y="150" width="2" height="146" fill="#fde68a" opacity="0.8"/>
    <g fill="#7c2d12" opacity="0.6"><rect x="190" y="168" width="20" height="3" rx="1.5"/><rect x="190" y="178" width="20" height="3" rx="1.5"/><rect x="190" y="188" width="20" height="3" rx="1.5"/></g>
    <rect x="195" y="298" width="10" height="14" rx="3" fill="#fde68a"/>
    <path d="M160 240 Q176 236 188 244 L188 286 Q174 290 160 286 Z" fill="#7c2d12" opacity="0.30"/>
    <path d="M240 240 Q224 236 212 244 L212 286 Q226 290 240 286 Z" fill="#7c2d12" opacity="0.30"/>
    <rect x="178" y="158" width="6" height="40" rx="3" fill="#fde68a"/>
    <rect x="216" y="158" width="6" height="40" rx="3" fill="#fde68a"/>
    <circle cx="181" cy="200" r="4" fill="#7c2d12"/>
    <circle cx="219" cy="200" r="4" fill="#7c2d12"/>
    <path d="M154 296 Q200 306 246 296 L246 296 Q200 314 154 296 Z" fill="#7c2d12" opacity="0.35"/>
    <g fill="#7c2d12" opacity="0.4"><rect x="156" y="293" width="3" height="14"/><rect x="241" y="293" width="3" height="14"/></g>
  </g>
</svg>
