<svg xmlns="http://www.w3.org/2000/svg" viewBox="0 0 400 400" role="img" aria-label="Digital Kitchen Scale 5kg">
  <defs>
    <linearGradient id="bg" x1="0" y1="0" x2="0" y2="1">
      <stop offset="0" stop-color="#ecfdf5"/>
      <stop offset="1" stop-color="#d1fae5"/>
    </linearGradient>
    <linearGradient id="body" x1="0" y1="0" x2="1" y2="1">
      <stop offset="0" stop-color="#10b981"/>
      <stop offset="1" stop-color="#047857"/>
    </linearGradient>
    <linearGradient id="glass" x1="0" y1="0" x2="1" y2="1">
      <stop offset="0" stop-color="#a7f3d0"/>
      <stop offset="1" stop-color="#10b981"/>
    </linearGradient>
    <linearGradient id="sheen" x1="0" y1="0" x2="1" y2="0">
      <stop offset="0" stop-color="#ffffff" stop-opacity="0.5"/>
      <stop offset="0.55" stop-color="#ffffff" stop-opacity="0"/>
    </linearGradient>
  </defs>
  <rect width="400" height="400" rx="28" fill="url(#bg)"/>
  <circle cx="322" cy="80" r="48" fill="#10b981" opacity="0.10"/>
  <circle cx="76" cy="118" r="26" fill="#10b981" opacity="0.08"/>
  <ellipse cx="200" cy="326" rx="94" ry="16" fill="#064e3b" opacity="0.12"/>
  <g>
    <polygon points="200,300 124,262 124,238 200,276 276,238 276,262" fill="#064e3b" opacity="0.45"/>
    <polygon points="200,118 304,170 200,222 96,170" fill="url(#body)"/>
    <polygon points="200,124 290,170 200,216 110,170" fill="url(#glass)" opacity="0.92"/>
    <polygon points="200,124 200,216 110,170" fill="url(#sheen)"/>
    <polygon points="200,118 96,170 96,186 200,238 304,186 304,170" fill="#047857"/>
    <rect x="170" y="158" width="60" height="26" rx="5" fill="#064e3b" opacity="0.7"/>
    <text x="200" y="178" font-family="system-ui,sans-serif" font-size="15" font-weight="700" fill="#a7f3d0" text-anchor="middle">2.5kg</text>
    <circle cx="156" cy="148" r="4" fill="#a7f3d0" opacity="0.85"/>
    <circle cx="244" cy="192" r="4" fill="#a7f3d0" opacity="0.85"/>
    <circle cx="252" cy="150" r="3" fill="#064e3b" opacity="0.6"/>
    <circle cx="148" cy="190" r="3" fill="#064e3b" opacity="0.6"/>
    <polygon points="200,118 218,109 226,113 208,122" fill="#a7f3d0" opacity="0.55"/>
  </g>
</svg>
