<svg xmlns="http://www.w3.org/2000/svg" viewBox="0 0 400 400" role="img" aria-label="Lightweight Hooded Windbreaker Jacket">
  <defs>
    <linearGradient id="bg" x1="0" y1="0" x2="0" y2="1"><stop offset="0" stop-color="#fff7ed"/><stop offset="1" stop-color="#ffedd5"/></linearGradient>
    <linearGradient id="body" x1="0" y1="0" x2="1" y2="1"><stop offset="0" stop-color="#f59e0b"/><stop offset="1" stop-color="#b45309"/></linearGradient>
    <linearGradient id="hood" x1="0" y1="0" x2="1" y2="1"><stop offset="0" stop-color="#fbbf24"/><stop offset="1" stop-color="#b45309"/></linearGradient>
    <linearGradient id="sheen" x1="0" y1="0" x2="1" y2="0"><stop offset="0" stop-color="#ffffff" stop-opacity="0.5"/><stop offset="0.55" stop-color="#ffffff" stop-opacity="0"/></linearGradient>
  </defs>
  <rect width="400" height="400" rx="28" fill="url(#bg)"/>
  <circle cx="322" cy="80" r="48" fill="#f59e0b" opacity="0.10"/>
  <circle cx="76" cy="118" r="26" fill="#f59e0b" opacity="0.08"/>
  <ellipse cx="200" cy="326" rx="94" ry="16" fill="#7c2d12" opacity="0.12"/>
  <g>
    <path d="M150 132 L116 162 L132 300 L268 300 L284 162 L250 132 Z" fill="url(#body)"/>
    <path d="M150 132 C150 102 250 102 250 132 C234 124 216 124 200 138 C184 124 166 124 150 132 Z" fill="url(#hood)"/>
    <path d="M188 130 C188 116 212 116 212 130 L210 150 C204 144 196 144 190 150 Z" fill="#7c2d12" opacity="0.55"/>
    <path d="M150 132 L116 162 L122 178 L160 150 Z" fill="url(#body)"/>
    <path d="M250 132 L284 162 L278 178 L240 150 Z" fill="url(#body)"/>
    <rect x="116" y="178" width="20" height="16" rx="6" fill="#7c2d12" opacity="0.5"/>
    <rect x="264" y="178" width="20" height="16" rx="6" fill="#7c2d12" opacity="0.5"/>
    <path d="M150 132 L132 156 L142 300 L156 300 L168 150 Z" fill="url(#sheen)"/>
    <rect x="196" y="138" width="8" height="162" rx="3" fill="#7c2d12" opacity="0.6"/>
    <rect x="197" y="138" width="2.5" height="162" fill="#fde68a" opacity="0.85"/>
    <circle cx="200" cy="150" r="6" fill="#fde68a"/>
    <rect x="197.5" y="154" width="5" height="26" rx="2.5" fill="#fde68a" opacity="0.9"/>
    <g fill="#fde68a" opacity="0.8"><circle cx="178" cy="232" r="3.5"/><circle cx="178" cy="252" r="3.5"/><circle cx="178" cy="272" r="3.5"/></g>
    <path d="M122 178 L132 300 L142 300 L132 178 Z" fill="#7c2d12" opacity="0.18"/>
    <path d="M278 178 L268 300 L258 300 L268 178 Z" fill="#7c2d12" opacity="0.18"/>
  </g>
</svg>
