<svg xmlns="http://www.w3.org/2000/svg" viewBox="0 0 400 400" role="img" aria-label="12-Piece Makeup Brush Set">
  <defs>
    <linearGradient id="bg" x1="0" y1="0" x2="0" y2="1">
      <stop offset="0" stop-color="#fdf2f8"/>
      <stop offset="1" stop-color="#fce7f3"/>
    </linearGradient>
    <linearGradient id="cup" x1="0" y1="0" x2="1" y2="1">
      <stop offset="0" stop-color="#ec4899"/>
      <stop offset="1" stop-color="#be185d"/>
    </linearGradient>
    <linearGradient id="handle" x1="0" y1="0" x2="1" y2="0">
      <stop offset="0" stop-color="#ec4899"/>
      <stop offset="1" stop-color="#be185d"/>
    </linearGradient>
    <linearGradient id="ferrule" x1="0" y1="0" x2="1" y2="0">
      <stop offset="0" stop-color="#fbcfe8"/>
      <stop offset="0.5" stop-color="#f9a8d4"/>
      <stop offset="1" stop-color="#be185d"/>
    </linearGradient>
    <linearGradient id="sheen" x1="0" y1="0" x2="1" y2="0">
      <stop offset="0" stop-color="#ffffff" stop-opacity="0.5"/>
      <stop offset="0.55" stop-color="#ffffff" stop-opacity="0"/>
    </linearGradient>
  </defs>
  <rect width="400" height="400" rx="28" fill="url(#bg)"/>
  <circle cx="322" cy="80" r="48" fill="#ec4899" opacity="0.10"/>
  <circle cx="76" cy="118" r="26" fill="#ec4899" opacity="0.08"/>
  <ellipse cx="200" cy="326" rx="94" ry="16" fill="#831843" opacity="0.12"/>
  <g>
    <g stroke-linecap="round">
      <line x1="148" y1="240" x2="118" y2="120" stroke="url(#handle)" stroke-width="11"/>
      <line x1="252" y1="240" x2="284" y2="124" stroke="url(#handle)" stroke-width="11"/>
      <line x1="172" y1="232" x2="158" y2="96" stroke="url(#handle)" stroke-width="12"/>
      <line x1="228" y1="232" x2="244" y2="100" stroke="url(#handle)" stroke-width="12"/>
      <line x1="200" y1="230" x2="200" y2="92" stroke="url(#handle)" stroke-width="13"/>
    </g>
    <g fill="url(#ferrule)">
      <rect x="111" y="118" width="14" height="26" rx="2" transform="rotate(-14 118 131)"/>
      <rect x="277" y="122" width="14" height="26" rx="2" transform="rotate(14 284 135)"/>
      <rect x="151" y="96" width="14" height="26" rx="2" transform="rotate(-6 158 109)"/>
      <rect x="237" y="100" width="14" height="26" rx="2" transform="rotate(6 244 113)"/>
      <rect x="193" y="92" width="14" height="26" rx="2"/>
    </g>
    <ellipse cx="116" cy="108" rx="13" ry="22" fill="#831843" opacity="0.85"/>
    <ellipse cx="287" cy="112" rx="13" ry="22" fill="#831843" opacity="0.85"/>
    <path d="M158 96 q-12 -34 0 -56 q12 22 0 56" fill="#831843" opacity="0.85"/>
    <ellipse cx="244" cy="86" rx="12" ry="24" fill="#831843" opacity="0.85"/>
    <ellipse cx="200" cy="78" rx="15" ry="22" fill="#831843" opacity="0.9"/>
    <path d="M150 226 h100 l-14 78 a8 8 0 0 1 -8 7 h-56 a8 8 0 0 1 -8 -7 z" fill="url(#cup)"/>
    <path d="M150 226 h28 l-10 85 h-6 a8 8 0 0 1 -8 -7 z" fill="url(#sheen)"/>
    <ellipse cx="200" cy="226" rx="50" ry="11" fill="#831843" opacity="0.55"/>
    <ellipse cx="200" cy="225" rx="42" ry="8" fill="#be185d"/>
  </g>
</svg>
