<svg xmlns="http://www.w3.org/2000/svg" viewBox="0 0 400 400" role="img" aria-label="Manual Burr Coffee Grinder">
  <defs>
    <linearGradient id="bg" x1="0" y1="0" x2="0" y2="1"><stop offset="0" stop-color="#ecfdf5"/><stop offset="1" stop-color="#d1fae5"/></linearGradient>
    <linearGradient id="body" x1="0" y1="0" x2="1" y2="1"><stop offset="0" stop-color="#10b981"/><stop offset="1" stop-color="#047857"/></linearGradient>
    <linearGradient id="jar" x1="0" y1="0" x2="1" y2="0"><stop offset="0" stop-color="#a7f3d0" stop-opacity="0.55"/><stop offset="0.5" stop-color="#d1fae5" stop-opacity="0.30"/><stop offset="1" stop-color="#047857" stop-opacity="0.30"/></linearGradient>
    <linearGradient id="sheen" x1="0" y1="0" x2="1" y2="0"><stop offset="0" stop-color="#ffffff" stop-opacity="0.5"/><stop offset="0.55" stop-color="#ffffff" stop-opacity="0"/></linearGradient>
  </defs>
  <rect width="400" height="400" rx="28" fill="url(#bg)"/>
  <circle cx="322" cy="80" r="48" fill="#10b981" opacity="0.10"/>
  <circle cx="76" cy="118" r="26" fill="#10b981" opacity="0.08"/>
  <ellipse cx="200" cy="326" rx="94" ry="16" fill="#064e3b" opacity="0.12"/>
  <g>
    <path d="M118 96 q82 -44 164 0" fill="none" stroke="url(#body)" stroke-width="11" stroke-linecap="round"/>
    <path d="M118 96 q82 -44 164 0" fill="none" stroke="#a7f3d0" stroke-width="3" stroke-linecap="round" opacity="0.7"/>
    <circle cx="118" cy="96" r="14" fill="url(#body)"/>
    <circle cx="113" cy="91" r="5" fill="#a7f3d0" opacity="0.85"/>
    <rect x="194" y="62" width="12" height="58" rx="6" fill="url(#body)"/>
    <rect x="190" y="110" width="20" height="16" rx="5" fill="#064e3b" opacity="0.6"/>
    <rect x="150" y="120" width="100" height="96" rx="16" fill="url(#body)"/>
    <rect x="150" y="120" width="40" height="96" rx="16" fill="url(#sheen)"/>
    <rect x="150" y="156" width="100" height="6" fill="#064e3b" opacity="0.25"/>
    <path d="M150 208 h100 v18 q0 8 -8 8 h-84 q-8 0 -8 -8 z" fill="#064e3b" opacity="0.55"/>
    <path d="M162 234 h76 v54 q0 12 -12 12 h-52 q-12 0 -12 -12 z" fill="url(#jar)" stroke="#047857" stroke-width="2.5" opacity="0.95"/>
    <g fill="#064e3b"><ellipse cx="182" cy="266" rx="7" ry="6"/><ellipse cx="200" cy="276" rx="7" ry="6"/><ellipse cx="218" cy="264" rx="7" ry="6"/><ellipse cx="192" cy="285" rx="6.5" ry="5.5"/><ellipse cx="212" cy="284" rx="6.5" ry="5.5"/></g>
    <g stroke="#a7f3d0" stroke-width="1.5" opacity="0.6"><line x1="182" y1="262" x2="182" y2="270"/><line x1="200" y1="272" x2="200" y2="280"/><line x1="218" y1="260" x2="218" y2="268"/></g>
    <rect x="168" y="238" width="8" height="58" rx="4" fill="#ffffff" opacity="0.30"/>
  </g>
</svg>
