<svg xmlns="http://www.w3.org/2000/svg" viewBox="0 0 400 400" role="img" aria-label="Smart WiFi Plug 16A">
  <defs>
    <linearGradient id="bg" x1="0" y1="0" x2="0" y2="1"><stop offset="0" stop-color="#eef2ff"/><stop offset="1" stop-color="#e0e7ff"/></linearGradient>
    <linearGradient id="body" x1="0" y1="0" x2="1" y2="1"><stop offset="0" stop-color="#6366f1"/><stop offset="1" stop-color="#4338ca"/></linearGradient>
    <radialGradient id="socket" cx="0.5" cy="0.42" r="0.62"><stop offset="0" stop-color="#312e81"/><stop offset="1" stop-color="#1e1b4b"/></radialGradient>
    <linearGradient id="sheen" x1="0" y1="0" x2="1" y2="0"><stop offset="0" stop-color="#ffffff" stop-opacity="0.5"/><stop offset="0.55" stop-color="#ffffff" stop-opacity="0"/></linearGradient>
    <radialGradient id="led" cx="0.5" cy="0.5" r="0.5"><stop offset="0" stop-color="#ffffff" stop-opacity="0.9"/><stop offset="0.6" stop-color="#c7d2fe" stop-opacity="0.7"/><stop offset="1" stop-color="#c7d2fe" stop-opacity="0"/></radialGradient>
  </defs>
  <rect width="400" height="400" rx="28" fill="url(#bg)"/>
  <circle cx="322" cy="80" r="48" fill="#6366f1" opacity="0.10"/>
  <circle cx="76" cy="118" r="26" fill="#6366f1" opacity="0.08"/>
  <ellipse cx="200" cy="326" rx="94" ry="16" fill="#1e1b4b" opacity="0.12"/>
  <g>
    <rect x="138" y="100" width="38" height="20" rx="5" fill="#312e81"/>
    <rect x="224" y="100" width="38" height="20" rx="5" fill="#312e81"/>
    <rect x="118" y="112" width="164" height="180" rx="40" fill="url(#body)"/>
    <rect x="118" y="112" width="64" height="180" rx="40" fill="url(#sheen)"/>
    <rect x="132" y="126" width="136" height="152" rx="32" fill="none" stroke="#1e1b4b" stroke-opacity="0.18" stroke-width="3"/>
    <circle cx="200" cy="186" r="50" fill="url(#socket)"/>
    <circle cx="200" cy="186" r="50" fill="none" stroke="#c7d2fe" stroke-opacity="0.35" stroke-width="2"/>
    <rect x="184" y="166" width="9" height="26" rx="4.5" fill="#c7d2fe"/>
    <rect x="207" y="166" width="9" height="26" rx="4.5" fill="#c7d2fe"/>
    <ellipse cx="200" cy="208" rx="11" ry="7" fill="#0f0d2e" opacity="0.7"/>
    <circle cx="200" cy="252" r="22" fill="url(#led)"/>
    <circle cx="200" cy="252" r="14" fill="#312e81"/>
    <circle cx="200" cy="252" r="14" fill="none" stroke="#c7d2fe" stroke-opacity="0.9" stroke-width="2.5"/>
    <circle cx="200" cy="252" r="5" fill="#c7d2fe"/>
  </g>
</svg>
